<svg width="73" height="55" viewBox="0 0 73 55" fill="none" xmlns="http://www.w3.org/2000/svg">
<g clip-path="url(#clip0)">
<path d="M42.9 7.3C43.3 7.5 43.7 7.6 43.9 8C43.9 8.1 44.1 8.1 44.1 8.1C46.6 8.6 48.1 10.8 47.5 13.3C47.4 13.7 47.2 14.2 47 14.6C45.4 17.3 43.9 20 42.3 22.8C41.6 24 40.6 24.7 39.3 25C39.3 25.1 39.3 25.2 39.3 25.4C39.3 27 39.3 28.6 39.2 30.2C39.1 32.3 38.3 34.2 36.9 35.7C35.6 37.2 33.9 38 31.9 37.7C30.4 37.5 29.2 36.8 28.2 35.7C26.8 34.2 26.1 32.4 25.9 30.4C25.8 28.6 25.8 26.8 25.8 25C25.8 24.8 25.9 24.5 25.8 24.4C25.7 24.3 25.4 24.2 25.2 24.2C23.5 23.6 22.5 21.8 22.9 19.9C23.2 18.1 24.9 16.8 26.7 16.9C28.5 16.9 30 18.2 30.3 19.9C30.6 21.7 29.7 23.4 28 24.1C27.8 24.2 27.5 24.2 27.4 24.3C27.3 24.5 27.4 24.7 27.4 25C27.4 26.3 27.4 27.7 27.4 29C27.4 30.8 27.8 32.5 28.9 34C29.6 35 30.5 35.8 31.7 36.1C33.3 36.5 34.6 36 35.7 34.9C36.9 33.8 37.5 32.3 37.8 30.7C37.9 30.1 37.9 29.4 38 28.8C38 27.6 38 26.4 38 25.3C38 25.2 38 25.1 38 25C37.1 24.8 36.3 24.4 35.7 23.8C35.4 23.5 35.2 23.2 35 22.8C33.4 20.1 31.8 17.4 30.3 14.6C29.2 12.6 29.5 10.4 31.2 9C31.7 8.5 32.4 8.3 33.1 8.1C33.2 8.1 33.4 8 33.5 7.9C33.8 7.7 34.1 7.5 34.4 7.3C34.6 7.3 34.8 7.3 35 7.3C35.1 7.3 35.1 7.4 35.2 7.4C35.8 7.6 36.2 8.2 36.2 8.8C36.2 9.4 35.8 10 35.2 10.2C34.6 10.4 33.9 10.3 33.5 9.8C33.3 9.6 33.2 9.6 33 9.7C31.4 10.2 30.5 12.1 31.5 13.8C33.1 16.5 34.7 19.3 36.3 22C36.5 22.4 36.8 22.7 37.2 23C38.5 24 40.3 23.5 41.2 22C41.9 20.9 42.5 19.7 43.2 18.5C44.2 16.8 45.2 15.2 46.1 13.5C46.9 12 46.1 10.1 44.4 9.6C44.2 9.5 44 9.5 43.9 9.7C43.4 10.3 42.5 10.4 41.9 9.9C41.3 9.5 41.1 8.6 41.4 7.9C41.6 7.5 42 7.3 42.4 7.1C42.5 7.3 42.7 7.3 42.9 7.3Z" fill="#11C8A9"/>
<path d="M26.7 18.7C27.7 18.7 28.6 19.5 28.6 20.5C28.6 21.5 27.7 22.5 26.7 22.4C25.7 22.4 24.9 21.5 24.9 20.5C24.8 19.5 25.6 18.7 26.7 18.7Z" fill="white"/>
<path d="M0 45.1C2.6 45.1 5.3 45.1 7.9 45.1V45C7.7 44.9 7.5 44.9 7.3 44.8C5.6 44.2 4.5 42.5 4.5 40.7C4.5 28.6 4.5 16.5 4.5 4.4C4.5 2 6.5 0 9 0C27 0 45.1 0 63.2 0C65.7 0 67.6 2 67.6 4.4C67.6 16.5 67.6 28.5 67.6 40.6C67.6 42.5 66.4 44.1 64.7 44.8C64.5 44.9 64.4 44.9 64.2 45.1C66.8 45.1 69.4 45.1 72.1 45.1C72.1 46.9 72.2 48.6 72.1 50.3C71.9 52.5 69.9 54.1 67.7 54.1C46.6 54.1 25.6 54.1 4.5 54.1C2.5 54.1 0.9 52.9 0.2 51C0.1 50.8 0.1 50.6 0 50.4C0 48.7 0 46.9 0 45.1ZM9.1 4.5C9.1 16.5 9.1 28.5 9.1 40.5C27.1 40.5 45.1 40.5 63.1 40.5C63.1 28.5 63.1 16.5 63.1 4.5C45.1 4.5 27.1 4.5 9.1 4.5ZM45.1 50.7C45.1 49.9 45.1 49.2 45.1 48.5C39.1 48.5 33.1 48.5 27.2 48.5C27.2 49.3 27.2 50 27.2 50.7C33.1 50.7 39.1 50.7 45.1 50.7ZM56.3 49.6C56.3 48.4 55.3 47.4 54.1 47.3C52.9 47.3 51.9 48.3 51.8 49.5C51.8 50.7 52.8 51.7 54 51.8C55.3 51.8 56.3 50.8 56.3 49.6ZM63.1 47.4C61.9 47.4 60.9 48.4 60.9 49.6C60.9 50.8 61.9 51.8 63.1 51.8C64.3 51.8 65.3 50.8 65.3 49.6C65.4 48.4 64.4 47.4 63.1 47.4Z" fill="#11C8A9"/>
</g>
<defs>
<clipPath id="clip0">
<rect width="72.2" height="54.1" fill="white"/>
</clipPath>
</defs>
</svg>
