<svg width="56" height="53" viewBox="0 0 56 53" fill="none" xmlns="http://www.w3.org/2000/svg">
<g clip-path="url(#clip0)">
<path d="M11.4 30.4L27.8 15L42.5 31.8V48.9L13.4 49.7L11.4 30.4Z" fill="white"/>
<path d="M55.5 24.8C55.1 25.4 54.8 26.1 54.4 26.5C53.4 27.5 51.7 27.4 50.6 26.6C50.4 26.4 50.2 26.2 50 26C44 20 37.9 13.9 31.9 7.9C30 6 27.4 5.6 25 6.9C24.5 7.2 24.1 7.6 23.7 8C17.6 14 11.6 20.1 5.5 26.2C4.4 27.3 3 27.6 1.7 27C0.0999981 26.2 -0.500002 24 0.599998 22.6C0.799998 22.4 0.999998 22.1 1.2 21.9C7.2 15.9 13.3 9.8 19.3 3.8C23.6 -0.699999 30 -1.2 34.9 2.4C35.4 2.8 35.8 3.2 36.3 3.6C42.1 9.4 48 15.3 53.8 21.1C54.5 21.8 55.2 22.5 55.5 23.5C55.5 24 55.5 24.4 55.5 24.8Z" fill="#11C8A9"/>
<path d="M27.8 53C22 53 16.2 53 10.3 53C8.7 53 7.4 52.4 6.7 50.9C6.4 50.3 6.3 49.6 6.3 49C6.3 42.9 6.3 36.9 6.3 30.8C6.3 30.6 6.4 30.2 6.6 30.1C12.2 24.4 17.9 18.8 23.5 13.2C24 12.7 24.5 12.3 25 11.9C26.9 10.4 28.7 10.4 30.6 12C31.4 12.6 32.1 13.3 32.8 14.1C38.1 19.4 43.5 24.8 48.8 30.1C49.1 30.4 49.2 30.6 49.2 31C49.2 37 49.2 43 49.2 48.9C49.2 51.5 47.7 53.1 45 53.1C39.3 53 33.5 53 27.8 53ZM23.9 38.5C23.9 41.1 23.9 43.6 23.9 46.1C26.5 46.1 29 46.1 31.6 46.1C31.6 43.6 31.6 41.1 31.6 38.5C34.2 38.5 36.6 38.5 39.1 38.5C39.1 35.9 39.1 33.4 39.1 30.8C36.6 30.8 34.1 30.8 31.5 30.8C31.5 28.3 31.5 25.8 31.5 23.3C28.9 23.3 26.4 23.3 23.8 23.3C23.8 25.8 23.8 28.3 23.8 30.9C21.2 30.9 18.7 30.9 16.2 30.9C16.2 33.5 16.2 36 16.2 38.6C18.9 38.5 21.3 38.5 23.9 38.5Z" fill="#11C8A9"/>
</g>
<defs>
<clipPath id="clip0">
<rect width="55.5" height="53" fill="white"/>
</clipPath>
</defs>
</svg>
